<svg width="17" height="18" viewBox="0 0 17 18" fill="none" xmlns="http://www.w3.org/2000/svg">
<path d="M5.00413 6.44139C3.05151 8.39401 3.05151 11.5598 5.00413 13.5125C6.95675 15.4651 10.1226 15.4651 12.0752 13.5125C14.0278 11.5598 14.0278 8.39401 12.0752 6.44139" stroke="#1890FF" stroke-linecap="round"/>
<path d="M8.05707 9.97696C8.05707 10.2531 8.28093 10.477 8.55707 10.477C8.83321 10.477 9.05707 10.2531 9.05707 9.97696H8.05707ZM8.91062 0.844206C8.71536 0.648944 8.39878 0.648944 8.20351 0.844206L5.02153 4.02619C4.82627 4.22145 4.82627 4.53803 5.02153 4.73329C5.2168 4.92856 5.53338 4.92856 5.72864 4.73329L8.55707 1.90487L11.3855 4.73329C11.5808 4.92856 11.8973 4.92856 12.0926 4.73329C12.2879 4.53803 12.2879 4.22145 12.0926 4.02619L8.91062 0.844206ZM9.05707 9.97696V1.19776H8.05707V9.97696H9.05707Z" fill="#1890FF"/>
</svg>
