<svg width="17" height="18" viewBox="0 0 17 18" fill="none" xmlns="http://www.w3.org/2000/svg">
<path d="M4.61836 6.44139C2.66574 8.39401 2.66574 11.5598 4.61836 13.5125C6.57098 15.4651 9.7368 15.4651 11.6894 13.5125C13.642 11.5598 13.642 8.39401 11.6894 6.44139" stroke="#fa8c16" stroke-linecap="round"/>
<path d="M7.6713 9.97696C7.6713 10.2531 7.89515 10.477 8.1713 10.477C8.44744 10.477 8.6713 10.2531 8.6713 9.97696H7.6713ZM8.52485 0.844206C8.32959 0.648944 8.013 0.648944 7.81774 0.844206L4.63576 4.02619C4.4405 4.22145 4.4405 4.53803 4.63576 4.73329C4.83102 4.92856 5.14761 4.92856 5.34287 4.73329L8.1713 1.90487L10.9997 4.73329C11.195 4.92856 11.5116 4.92856 11.7068 4.73329C11.9021 4.53803 11.9021 4.22145 11.7068 4.02619L8.52485 0.844206ZM8.6713 9.97696V1.19776H7.6713V9.97696H8.6713Z" fill="#fa8c16"/>
</svg>
