<svg width="16" height="15" viewBox="0 0 16 15" fill="none" xmlns="http://www.w3.org/2000/svg">
<path d="M10.9506 5.51282C10.9506 2.75139 8.71204 0.512817 5.95061 0.512817C3.18919 0.512817 0.950615 2.75139 0.950615 5.51282C0.950615 8.27424 3.18919 10.5128 5.95061 10.5128" stroke="#1890FF" stroke-linecap="round"/>
<path d="M6.29184 5.17155C6.09657 4.97629 5.77999 4.97629 5.58473 5.17155C5.38947 5.36681 5.38947 5.68339 5.58473 5.87865L6.29184 5.17155ZM12.1461 12.2329C12.4223 12.2329 12.6461 12.0091 12.6461 11.7329L12.6461 7.23293C12.6461 6.95679 12.4223 6.73293 12.1461 6.73293C11.87 6.73293 11.6461 6.95679 11.6461 7.23293V11.2329H7.64611C7.36997 11.2329 7.14611 11.4568 7.14611 11.7329C7.14611 12.0091 7.36997 12.2329 7.64611 12.2329L12.1461 12.2329ZM5.58473 5.87865L11.7926 12.0865L12.4997 11.3794L6.29184 5.17155L5.58473 5.87865Z" fill="#1890FF"/>
</svg>
