<svg width="17" height="18" viewBox="0 0 17 18" fill="none" xmlns="http://www.w3.org/2000/svg">
<path d="M5.0272 5.77945C3.07457 7.73207 3.07457 10.8979 5.0272 12.8505C6.97982 14.8031 10.1456 14.8031 12.0983 12.8505C14.0509 10.8979 14.0509 7.73207 12.0983 5.77945" stroke="#52c41a" stroke-linecap="round"/>
<path d="M8.08014 9.31502C8.08014 9.59116 8.304 9.81502 8.58014 9.81502C8.85628 9.81502 9.08014 9.59116 9.08014 9.31502H8.08014ZM8.93369 0.182265C8.73843 -0.0129974 8.42185 -0.0129974 8.22659 0.182265L5.04461 3.36425C4.84934 3.55951 4.84934 3.87609 5.04461 4.07135C5.23987 4.26661 5.55645 4.26661 5.75171 4.07135L8.58014 1.24292L11.4086 4.07135C11.6038 4.26661 11.9204 4.26661 12.1157 4.07135C12.3109 3.87609 12.3109 3.55951 12.1157 3.36425L8.93369 0.182265ZM9.08014 9.31502V0.535818H8.08014V9.31502H9.08014Z" fill="#52c41a"/>
</svg>
