<svg width="17" height="18" viewBox="0 0 17 18" fill="none" xmlns="http://www.w3.org/2000/svg">
<path d="M4.62996 5.84004C2.67734 7.79266 2.67734 10.9585 4.62996 12.9111C6.58258 14.8637 9.74841 14.8637 11.701 12.9111C13.6537 10.9585 13.6537 7.79266 11.701 5.84004" stroke="#f5222d" stroke-linecap="round"/>
<path d="M7.6829 9.37561C7.6829 9.65175 7.90676 9.87561 8.1829 9.87561C8.45904 9.87561 8.6829 9.65175 8.6829 9.37561H7.6829ZM8.53645 0.242857C8.34119 0.0475952 8.02461 0.0475952 7.82935 0.242857L4.64737 3.42484C4.4521 3.6201 4.4521 3.93668 4.64737 4.13194C4.84263 4.32721 5.15921 4.32721 5.35447 4.13194L8.1829 1.30352L11.0113 4.13194C11.2066 4.32721 11.5232 4.32721 11.7184 4.13194C11.9137 3.93668 11.9137 3.6201 11.7184 3.42484L8.53645 0.242857ZM8.6829 9.37561V0.596411H7.6829V9.37561H8.6829Z" fill="#f5222d"/>
</svg>
