<svg width="18" height="17" viewBox="0 0 18 17" fill="none" xmlns="http://www.w3.org/2000/svg">
<path d="M12.2299 4.57863C10.2772 2.62601 7.1114 2.62601 5.15878 4.57863C3.20616 6.53125 3.20616 9.69708 5.15878 11.6497C7.1114 13.6023 10.2772 13.6023 12.2299 11.6497" stroke="#1890FF" stroke-linecap="round"/>
<path d="M8.69428 7.63158C8.41814 7.63158 8.19428 7.85543 8.19428 8.13158C8.19428 8.40772 8.41814 8.63158 8.69428 8.63158V7.63158ZM17.827 8.48513C18.0223 8.28987 18.0223 7.97329 17.827 7.77802L14.6451 4.59604C14.4498 4.40078 14.1332 4.40078 13.9379 4.59604C13.7427 4.7913 13.7427 5.10789 13.9379 5.30315L16.7664 8.13158L13.9379 10.96C13.7427 11.1553 13.7427 11.4718 13.9379 11.6671C14.1332 11.8624 14.4498 11.8624 14.6451 11.6671L17.827 8.48513ZM8.69428 8.63158H17.4735V7.63158H8.69428V8.63158Z" fill="#1890FF"/>
</svg>
