<svg width="17" height="18" viewBox="0 0 17 18" fill="none" xmlns="http://www.w3.org/2000/svg">
<path d="M5.23259 6.44139C3.27997 8.39401 3.27997 11.5598 5.23259 13.5125C7.18522 15.4651 10.351 15.4651 12.3037 13.5125C14.2563 11.5598 14.2563 8.39401 12.3037 6.44139" stroke="#fadb14" stroke-linecap="round"/>
<path d="M8.28553 9.97696C8.28553 10.2531 8.50939 10.477 8.78553 10.477C9.06167 10.477 9.28553 10.2531 9.28553 9.97696H8.28553ZM9.13908 0.844206C8.94382 0.648944 8.62724 0.648944 8.43198 0.844206L5.25 4.02619C5.05473 4.22145 5.05473 4.53803 5.25 4.73329C5.44526 4.92856 5.76184 4.92856 5.9571 4.73329L8.78553 1.90487L11.614 4.73329C11.8092 4.92856 12.1258 4.92856 12.3211 4.73329C12.5163 4.53803 12.5163 4.22145 12.3211 4.02619L9.13908 0.844206ZM9.28553 9.97696V1.19776H8.28553V9.97696H9.28553Z" fill="#fadb14"/>
</svg>
